<svg id="Logo" xmlns="http://www.w3.org/2000/svg" width="141.085" height="43.5" viewBox="0 0 141.085 43.5">
  <g id="Climax6" transform="translate(0 0)">
    <g id="Group-4" transform="translate(0 0)">
      <g id="Group">
        <path id="Combined-Shape" d="M21.514,43.5a21.751,21.751,0,0,1,0-43.5V8.428a13.542,13.542,0,0,0,0,27.08Z" transform="translate(0 0)" fill="#1528f5" fill-rule="evenodd"/>
        <rect id="Rectangle" width="8.591" height="8.591" transform="translate(21.514 26.92)" fill="#006ae8"/>
        <rect id="Rectangle-Copy-3" width="6.123" height="6.123" transform="translate(30.209 19.899)" fill="#00b0ff"/>
        <rect id="Rectangle-Copy-4" width="4.566" height="4.566" transform="translate(25.55 14.566)" fill="#00dfee"/>
        <rect id="Rectangle-Copy-5" width="3.061" height="3.061" transform="translate(30.203 10.843)" fill="#00ffc2"/>
      </g>
      <g id="Group-3" transform="translate(47.296 11.246)">
        <path id="ClimaxSuite" d="M6.988,11.6A5.368,5.368,0,0,1,10.4,12.657a5.006,5.006,0,0,1,1.79,2.88h-2.3a3.014,3.014,0,0,0-1.113-1.4,3.146,3.146,0,0,0-1.813-.514A2.866,2.866,0,0,0,4.3,15.3a4.339,4.339,0,0,0-.389,1.9A4.3,4.3,0,0,0,4.3,19.086a2.866,2.866,0,0,0,2.662,1.681,3.146,3.146,0,0,0,1.813-.514,3.014,3.014,0,0,0,1.113-1.4h2.3a5.006,5.006,0,0,1-1.79,2.88A5.368,5.368,0,0,1,6.988,22.79a5.385,5.385,0,0,1-2.779-.708A4.822,4.822,0,0,1,2.342,20.1a6.2,6.2,0,0,1-.662-2.9,6.234,6.234,0,0,1,.662-2.911A4.838,4.838,0,0,1,4.2,12.307,5.374,5.374,0,0,1,6.988,11.6Zm8.71-.42V22.7H13.5V11.178Zm1.41.42a1.107,1.107,0,0,1,.374-.864,1.6,1.6,0,0,1,1.961,0,1.107,1.107,0,0,1,.374.864,1.089,1.089,0,0,1-.374.848,1.6,1.6,0,0,1-1.961,0A1.089,1.089,0,0,1,17.108,11.6Zm2.444,2.475V22.7H17.357V14.074Zm12.633-.125a3.236,3.236,0,0,1,2.483.973,3.891,3.891,0,0,1,.911,2.763V22.7H33.4V17.934a2.151,2.151,0,0,0-.506-1.533,1.821,1.821,0,0,0-1.393-.537,1.919,1.919,0,0,0-1.463.576,2.357,2.357,0,0,0-.545,1.681V22.7H27.312V17.934a2.151,2.151,0,0,0-.506-1.533,1.821,1.821,0,0,0-1.393-.537,1.919,1.919,0,0,0-1.463.576,2.357,2.357,0,0,0-.545,1.681V22.7H21.211V14.074h2.195v1.634a2.673,2.673,0,0,1,1.082-1.3,3.193,3.193,0,0,1,1.72-.459,3.266,3.266,0,0,1,1.813.5,3.044,3.044,0,0,1,1.16,1.432,3.256,3.256,0,0,1,3-1.93Zm8.368.016a3.314,3.314,0,0,1,1.868.514,2.8,2.8,0,0,1,1.105,1.385v-1.79H45.7V22.7H43.525V20.891a2.839,2.839,0,0,1-1.105,1.393,3.277,3.277,0,0,1-1.868.521,3.7,3.7,0,0,1-1.961-.529,3.575,3.575,0,0,1-1.362-1.533,5.317,5.317,0,0,1-.49-2.358,5.317,5.317,0,0,1,.49-2.358,3.575,3.575,0,0,1,1.362-1.533A3.7,3.7,0,0,1,40.552,13.965Zm.685,1.915a2.147,2.147,0,0,0-1.65.669,2.591,2.591,0,0,0-.623,1.837,2.563,2.563,0,0,0,.623,1.829,2.359,2.359,0,0,0,3.292-.016,2.518,2.518,0,0,0,.646-1.813,2.54,2.54,0,0,0-.646-1.829A2.172,2.172,0,0,0,41.237,15.879ZM52.609,22.7l-1.961-2.771L49,22.7H46.585l2.849-4.5-2.911-4.125h2.459L50.9,16.8l1.65-2.724H54.96l-2.9,4.374,3,4.249Zm13.856-3a2.98,2.98,0,0,1-.42,1.549A3.019,3.019,0,0,1,64.8,22.378a4.317,4.317,0,0,1-2.008.428,5.211,5.211,0,0,1-2.086-.4,3.527,3.527,0,0,1-1.471-1.144,3.3,3.3,0,0,1-.63-1.743h2.335a1.784,1.784,0,0,0,.537,1.113,1.684,1.684,0,0,0,1.222.444,1.422,1.422,0,0,0,1.051-.366,1.275,1.275,0,0,0,.366-.942,1.234,1.234,0,0,0-.3-.848,2.158,2.158,0,0,0-.747-.537q-.451-.2-1.245-.467a12.31,12.31,0,0,1-1.681-.677,3.108,3.108,0,0,1-1.113-.973,2.787,2.787,0,0,1-.459-1.666,2.708,2.708,0,0,1,1.02-2.234,4.191,4.191,0,0,1,2.7-.817,4.277,4.277,0,0,1,2.779.841,3.173,3.173,0,0,1,1.175,2.241H63.881a1.648,1.648,0,0,0-.5-.973,1.547,1.547,0,0,0-1.105-.381,1.458,1.458,0,0,0-.981.319,1.3,1.3,0,0,0-.086,1.728,2.2,2.2,0,0,0,.732.521,12.008,12.008,0,0,0,1.206.451,16.039,16.039,0,0,1,1.72.7A3.031,3.031,0,0,1,66,17.981,2.882,2.882,0,0,1,66.465,19.693ZM76,14.074V22.7H73.805V20.954a2.748,2.748,0,0,1-1.129,1.362,3.355,3.355,0,0,1-1.813.49,3.053,3.053,0,0,1-2.382-.981,3.937,3.937,0,0,1-.887-2.74V14.074h2.179v4.763a2.252,2.252,0,0,0,.529,1.6A1.862,1.862,0,0,0,71.735,21a1.955,1.955,0,0,0,1.51-.607,2.479,2.479,0,0,0,.56-1.743V14.074ZM77.41,11.6a1.107,1.107,0,0,1,.374-.864,1.6,1.6,0,0,1,1.961,0,1.107,1.107,0,0,1,.374.864,1.089,1.089,0,0,1-.374.848,1.6,1.6,0,0,1-1.961,0A1.089,1.089,0,0,1,77.41,11.6Zm2.444,2.475V22.7H77.659V14.074Zm6.266,6.74V22.7H84.968A3.187,3.187,0,0,1,82.75,22a3.032,3.032,0,0,1-.771-2.335V15.926h-1.2V14.074h1.2V11.941h2.195v2.133H86.1v1.852h-1.93v3.767a1.215,1.215,0,0,0,.249.872,1.163,1.163,0,0,0,.841.249Zm9.348-2.755a4.156,4.156,0,0,1-.078.747h-6.32a2.377,2.377,0,0,0,.623,1.7,2,2,0,0,0,1.432.545,2.078,2.078,0,0,0,1.269-.374,1.655,1.655,0,0,0,.646-1.012H95.36a3.71,3.71,0,0,1-.732,1.619,3.823,3.823,0,0,1-1.44,1.121,4.933,4.933,0,0,1-4.195-.132,3.775,3.775,0,0,1-1.525-1.533,4.826,4.826,0,0,1-.545-2.35,4.871,4.871,0,0,1,.545-2.358,3.713,3.713,0,0,1,1.525-1.533,4.645,4.645,0,0,1,2.241-.529,4.543,4.543,0,0,1,2.234.529,3.73,3.73,0,0,1,1.479,1.455A4.224,4.224,0,0,1,95.469,18.058Zm-2.21-.218a1.934,1.934,0,0,0-.553-1.6,2.107,2.107,0,0,0-1.471-.545,2.156,2.156,0,0,0-1.494.545,2.23,2.23,0,0,0-.669,1.6Z" transform="translate(-1.68 -10.4)" fill="#1528f5"/>
        <path id="WECOVERITALL" d="M9.561,56.922,8.377,61.585H7.643L6.564,57.775,5.486,61.585H4.752L3.561,56.922h.668l.893,3.963,1.1-3.963H6.9L8,60.871l.9-3.949Zm4.248.49v1.594h1.773v.463H13.809V61.1h1.971v.49H13.207V56.922h2.573v.49Zm12.32-.536a2.271,2.271,0,0,1,1.409.42,2.142,2.142,0,0,1,.767,1.148H27.67a1.555,1.555,0,0,0-.576-.738,1.668,1.668,0,0,0-.972-.275,1.5,1.5,0,0,0-1.386.857,2.128,2.128,0,0,0-.208.969,2.091,2.091,0,0,0,.208.959,1.5,1.5,0,0,0,1.386.853,1.668,1.668,0,0,0,.972-.275,1.555,1.555,0,0,0,.576-.738h.635a2.142,2.142,0,0,1-.767,1.148,2.271,2.271,0,0,1-1.409.42,2.21,2.21,0,0,1-1.158-.3,2.075,2.075,0,0,1-.784-.84,2.615,2.615,0,0,1-.281-1.227,2.649,2.649,0,0,1,.281-1.237,2.07,2.07,0,0,1,.784-.843A2.21,2.21,0,0,1,26.129,56.875Zm8.058-.013a2.266,2.266,0,0,1,1.168.3,2.166,2.166,0,0,1,.817.85,2.706,2.706,0,0,1,0,2.468,2.166,2.166,0,0,1-.817.85,2.266,2.266,0,0,1-1.168.3,2.3,2.3,0,0,1-1.174-.3,2.152,2.152,0,0,1-.824-.85,2.706,2.706,0,0,1,0-2.468,2.152,2.152,0,0,1,.824-.85A2.3,2.3,0,0,1,34.187,56.862Zm0,.562a1.683,1.683,0,0,0-.863.222,1.536,1.536,0,0,0-.6.635,2.284,2.284,0,0,0,0,1.935,1.531,1.531,0,0,0,.6.638,1.683,1.683,0,0,0,.863.222,1.651,1.651,0,0,0,.857-.225,1.558,1.558,0,0,0,.6-.638,2.277,2.277,0,0,0,0-1.932,1.536,1.536,0,0,0-.6-.635A1.67,1.67,0,0,0,34.187,57.424Zm6.338-.5,1.422,4,1.442-4h.655l-1.713,4.664h-.761l-1.707-4.664Zm7.668.49v1.594h1.773v.463H48.194V61.1h1.971v.49H47.592V56.922h2.573v.49Zm8.158,4.174L55.134,59.68h-.655v1.905h-.6V56.922h1.535a1.661,1.661,0,0,1,1.191.38,1.333,1.333,0,0,1,.4,1.009,1.3,1.3,0,0,1-.318.916,1.482,1.482,0,0,1-.92.433l1.27,1.925Zm-1.872-2.342h.88q1.025,0,1.025-.9t-1.025-.9h-.88Zm11.367-2.322v4.664h-.6V56.922Zm6.762,0v.49H71.291v4.174h-.6V57.411H69.373v-.49Zm10.838,3.586H81.395L81,61.585h-.648l1.727-4.578h.681l1.72,4.578h-.648Zm-.172-.47-.853-2.355-.853,2.355Zm5.359,1.078h1.654v.47H88.031V56.922h.6Zm5.809,0H96.1v.47H93.84V56.922h.6Z" transform="translate(-2.829 -38.781)" fill="#1528f5"/>
      </g>
    </g>
  </g>
</svg>
